<svg id="svg" xmlns="http://www.w3.org/2000/svg" xmlns:xlink="http://www.w3.org/1999/xlink" width="512" height="213.33333333333334" viewBox="0, 0, 512,213.33333333333334"><g id="svgg"><path id="path0" d="M0.000 106.667 L 0.000 213.333 256.000 213.333 L 512.000 213.333 512.000 106.667 L 512.000 0.000 256.000 0.000 L 0.000 0.000 0.000 106.667 M120.596 36.667 C 133.817 44.098,134.100 44.324,135.578 48.642 C 136.958 52.673,136.230 56.516,133.916 57.403 C 132.408 57.982,98.222 37.717,98.222 36.244 C 98.222 35.660,99.581 34.266,101.243 33.147 C 106.194 29.810,109.450 30.402,120.596 36.667 M84.685 32.811 C 88.425 34.233,92.403 38.981,93.004 42.740 C 93.602 46.480,97.470 49.140,122.106 62.754 C 136.845 70.899,137.529 72.889,125.592 72.889 L 116.962 72.889 102.790 64.759 C 89.316 57.031,88.478 56.680,85.801 57.648 C 79.072 60.082,73.447 58.576,69.095 53.176 C 60.886 42.990,72.286 28.097,84.685 32.811 M75.292 37.863 C 68.583 41.501,70.320 52.437,77.831 53.846 C 88.083 55.770,92.815 42.566,83.585 37.793 C 80.351 36.121,78.477 36.137,75.292 37.863 M160.903 40.732 C 169.565 45.267,170.046 59.119,161.707 63.863 C 159.491 65.123,159.122 65.873,159.117 69.111 L 159.111 72.889 153.333 72.889 L 147.556 72.889 147.556 68.709 C 147.556 65.245,147.087 64.046,144.819 61.705 C 134.349 50.904,147.522 33.728,160.903 40.732 M151.111 44.507 C 142.894 47.855,144.580 59.857,153.434 61.044 C 156.597 61.469,157.479 61.178,160.076 58.858 C 167.375 52.336,160.177 40.812,151.111 44.507 M71.513 59.036 C 74.727 60.379,76.750 63.120,75.949 65.047 C 75.309 66.588,40.037 85.667,39.262 84.892 C 36.193 81.823,39.749 72.414,45.303 68.908 C 60.363 59.401,66.686 57.019,71.513 59.036 M173.657 63.448 C 181.837 66.866,182.664 73.079,174.889 72.709 C 168.713 72.415,168.100 71.594,169.297 65.217 C 169.942 61.776,169.796 61.835,173.657 63.448 M94.216 73.774 C 96.170 74.820,96.084 74.938,91.532 77.427 C 88.945 78.842,84.592 82.117,81.858 84.706 C 79.012 87.401,72.522 91.835,66.667 95.084 C 52.100 103.166,51.877 103.348,51.304 107.618 C 50.142 116.287,39.079 121.177,31.325 116.449 C 17.643 108.107,27.716 87.364,43.000 92.408 C 46.600 93.596,47.322 93.264,71.551 79.284 C 86.435 70.696,87.830 70.357,94.216 73.774 M35.012 96.838 C 32.629 97.843,29.333 101.992,29.333 103.987 C 29.333 113.938,41.671 117.421,46.118 108.725 C 49.486 102.140,41.840 93.956,35.012 96.838 M176.387 102.200 C 180.562 103.788,179.651 108.711,175.333 107.896 C 170.956 107.070,165.032 107.087,163.667 107.931 C 161.607 109.204,164.458 111.111,168.421 111.111 C 175.910 111.111,179.556 113.585,179.556 118.667 C 179.556 124.174,175.945 126.230,166.312 126.210 C 157.582 126.192,156.444 125.714,156.444 122.059 C 156.444 119.558,156.732 119.075,158.000 119.443 C 162.282 120.686,169.697 120.994,171.543 120.007 C 174.565 118.389,172.467 117.076,165.751 116.380 C 154.831 115.250,152.264 106.128,161.796 102.325 C 164.682 101.174,173.489 101.099,176.387 102.200 M253.720 102.200 C 255.647 102.933,257.374 108.444,255.677 108.444 C 255.499 108.444,253.336 108.062,250.870 107.594 C 242.902 106.083,239.149 108.076,239.125 113.830 C 239.098 119.931,242.854 121.611,252.889 119.987 C 255.343 119.590,255.577 119.781,255.829 122.382 C 256.288 127.114,240.752 128.020,235.983 123.540 C 224.610 112.855,238.329 96.349,253.720 102.200 M320.620 104.385 C 323.195 107.381,323.146 114.134,320.535 116.044 C 318.705 117.382,318.763 118.171,320.889 120.889 C 323.511 124.241,323.127 125.334,319.333 125.326 C 316.379 125.320,315.769 124.916,313.973 121.771 C 310.879 116.352,304.889 116.357,304.889 121.778 C 304.889 125.249,304.815 125.333,301.778 125.333 L 298.667 125.333 298.667 113.843 C 298.667 100.419,297.766 101.383,310.078 101.619 C 318.070 101.772,318.462 101.875,320.620 104.385 M117.333 104.889 C 117.333 107.496,117.235 107.556,112.889 107.556 L 108.444 107.556 108.444 116.444 L 108.444 125.333 104.889 125.333 L 101.333 125.333 101.333 116.444 L 101.333 107.556 96.889 107.556 C 92.543 107.556,92.444 107.496,92.444 104.889 L 92.444 102.222 104.889 102.222 L 117.333 102.222 117.333 104.889 M147.556 104.889 L 147.556 107.556 139.556 107.556 C 132.148 107.556,131.556 107.687,131.556 109.333 C 131.556 110.942,132.148 111.111,137.778 111.111 L 144.000 111.111 144.000 113.778 L 144.000 116.444 137.778 116.444 C 132.148 116.444,131.556 116.614,131.556 118.222 C 131.556 119.868,132.148 120.000,139.556 120.000 L 147.556 120.000 147.556 122.667 L 147.556 125.333 136.444 125.333 L 125.333 125.333 125.333 113.778 L 125.333 102.222 136.444 102.222 L 147.556 102.222 147.556 104.889 M211.556 104.889 C 211.556 107.496,211.457 107.556,207.111 107.556 L 202.667 107.556 202.667 116.444 L 202.667 125.333 199.111 125.333 L 195.556 125.333 195.556 116.444 L 195.556 107.556 191.111 107.556 C 186.765 107.556,186.667 107.496,186.667 104.889 L 186.667 102.222 199.111 102.222 L 211.556 102.222 211.556 104.889 M285.357 113.456 C 288.277 119.635,290.667 124.835,290.667 125.012 C 290.667 126.450,283.597 125.087,283.111 123.556 C 282.619 122.005,281.766 121.778,276.444 121.778 C 271.123 121.778,270.270 122.005,269.778 123.556 C 269.197 125.385,263.111 126.277,263.111 124.533 C 263.111 124.093,265.374 118.893,268.140 112.978 L 273.168 102.222 276.608 102.222 L 280.047 102.222 285.357 113.456 M344.095 109.111 L 349.778 116.000 350.037 109.111 L 350.297 102.222 353.842 102.222 L 357.386 102.222 357.138 113.556 L 356.889 124.889 353.333 125.108 C 349.884 125.321,349.618 125.125,344.444 118.586 L 339.111 111.844 338.851 118.589 L 338.592 125.333 335.074 125.333 L 331.556 125.333 331.556 113.778 L 331.556 102.222 334.984 102.222 C 338.179 102.222,338.800 102.691,344.095 109.111 M373.333 113.778 L 373.333 125.333 369.778 125.333 L 366.222 125.333 366.222 113.778 L 366.222 102.222 369.778 102.222 L 373.333 102.222 373.333 113.778 M388.719 105.556 C 389.466 107.389,391.137 111.263,392.433 114.165 L 394.790 119.442 398.549 111.054 C 402.242 102.810,402.363 102.662,405.598 102.391 C 409.658 102.050,409.860 100.864,403.600 114.127 L 398.312 125.333 394.855 125.333 L 391.398 125.333 386.366 114.814 C 380.453 102.454,380.415 102.222,384.348 102.222 C 386.998 102.222,387.527 102.626,388.719 105.556 M433.801 113.456 C 436.722 119.635,439.111 124.835,439.111 125.012 C 439.111 126.450,432.042 125.087,431.556 123.556 C 431.063 122.005,430.211 121.778,424.889 121.778 C 419.567 121.778,418.714 122.005,418.222 123.556 C 417.642 125.385,411.556 126.277,411.556 124.533 C 411.556 124.093,413.818 118.893,416.584 112.978 L 421.612 102.222 425.052 102.222 L 428.492 102.222 433.801 113.456 M453.333 111.111 L 453.333 120.000 461.333 120.000 L 469.333 120.000 469.333 122.667 L 469.333 125.333 457.778 125.333 L 446.222 125.333 446.222 113.778 L 446.222 102.222 449.778 102.222 L 453.333 102.222 453.333 111.111 M307.333 107.303 C 305.475 107.585,304.889 108.168,304.889 109.738 C 304.889 112.075,309.148 113.416,313.280 112.378 C 317.703 111.268,315.314 106.179,310.667 106.812 C 310.178 106.879,308.678 107.100,307.333 107.303 M71.330 114.460 C 71.591 118.258,72.448 122.907,73.235 124.791 C 74.364 127.492,74.667 131.465,74.667 143.562 L 74.667 158.907 76.870 160.351 C 83.734 164.848,83.626 177.132,76.680 182.042 C 62.954 191.744,46.914 171.590,60.032 161.123 L 63.111 158.667 63.111 137.053 C 63.111 114.204,63.292 113.047,67.417 109.560 C 70.756 106.738,70.805 106.800,71.330 114.460 M275.157 111.912 C 273.375 115.357,273.617 115.775,277.171 115.396 L 279.847 115.111 278.257 112.051 L 276.667 108.992 275.157 111.912 M423.661 111.796 C 421.761 115.470,421.789 115.556,424.889 115.556 C 427.822 115.556,428.153 114.526,426.296 111.174 L 425.100 109.014 423.661 111.796 M53.063 119.333 C 53.980 120.553,53.275 159.473,52.318 160.425 C 51.460 161.280,46.011 158.729,44.091 156.574 C 39.537 151.463,40.140 125.904,44.927 121.117 C 47.929 118.116,51.549 117.322,53.063 119.333 M99.638 148.757 C 102.552 149.516,110.436 153.464,118.744 158.325 C 126.524 162.877,133.489 166.514,134.222 166.408 C 143.021 165.137,143.950 165.192,147.505 167.189 C 159.523 173.944,154.726 192.148,140.927 192.148 C 133.888 192.148,128.712 187.433,127.512 179.928 C 126.906 176.140,125.835 175.400,96.226 158.310 C 89.263 154.291,87.111 151.462,87.111 146.329 L 87.111 143.236 90.894 145.351 C 92.975 146.514,96.910 148.047,99.638 148.757 M137.476 151.282 C 135.732 151.917,134.359 151.914,133.032 151.272 C 131.424 150.494,131.836 150.344,135.556 150.353 C 139.655 150.362,139.804 150.434,137.476 151.282 M180.444 152.013 C 172.052 158.626,157.791 165.617,154.105 164.926 C 145.156 163.247,144.919 158.329,153.562 153.630 L 159.556 150.372 171.111 150.317 L 182.667 150.262 180.444 152.013 M63.377 164.003 C 58.881 167.152,59.180 176.087,63.866 178.595 C 69.716 181.726,77.333 177.493,77.333 171.111 C 77.333 164.468,68.868 160.156,63.377 164.003 M106.048 175.481 C 126.291 187.743,125.454 187.047,122.667 189.305 C 116.356 194.418,112.062 193.526,96.220 183.811 C 87.705 178.589,86.280 176.908,86.082 171.853 C 85.772 163.939,87.517 164.256,106.048 175.481 M136.689 171.119 C 129.106 175.372,132.219 187.556,140.889 187.556 C 148.071 187.556,152.101 178.395,147.333 172.908 C 144.846 170.046,140.043 169.239,136.689 171.119 " stroke="none" fill="#25064d" fill-rule="evenodd"></path></g></svg>